<?xml version="1.0" encoding="UTF-8" standalone="no"?><!DOCTYPE svg PUBLIC "-//W3C//DTD SVG 1.1//EN" "http://www.w3.org/Graphics/SVG/1.1/DTD/svg11.dtd"><svg width="100%" height="100%" viewBox="0 0 299 462" version="1.1" xmlns="http://www.w3.org/2000/svg" xmlns:xlink="http://www.w3.org/1999/xlink" xml:space="preserve" xmlns:serif="http://www.serif.com/" style="fill-rule:evenodd;clip-rule:evenodd;stroke-linejoin:round;stroke-miterlimit:2;"><g><g><path d="M298.004,40.991c-11.255,72.141 -73.725,127.415 -149.002,127.415c-75.278,0 -137.747,-55.274 -149.002,-127.415l298.004,0Z" style="fill:#2f2f2f;"/><path d="M253.09,104.699c-7.214,27.534 -56.735,48.63 -104.984,48.63c-48.248,0 -95.978,-21.096 -103.192,-48.63l208.176,0Z" style="fill:#fff;"/><rect x="133.507" y="159.991" width="30.99" height="154.862" style="fill:#2f2f2f;"/><ellipse cx="149.002" cy="314.853" rx="113.974" ry="12.853" style="fill:#2f2f2f;"/><path d="M55.673,402.833c0,4.208 -1.473,7.762 -4.421,10.664c-2.948,2.901 -6.502,4.352 -10.664,4.352c-2.427,0 -4.392,-0.266 -5.895,-0.798l1.352,-8.877c1.064,0.231 1.989,0.346 2.775,0.346c0.462,0.047 1.132,0.035 2.011,-0.034c1.549,-0.116 2.855,-0.676 3.919,-1.682c1.063,-1.006 1.595,-2.26 1.595,-3.763l0,-49.243l9.328,0l0,49.035Z" style="fill:#2f2f2f;fill-rule:nonzero;"/><path d="M74.469,402.521l-2.323,14.53l-9.918,0l10.715,-63.253l13.144,0l10.577,63.253l-9.988,0l-2.254,-14.53l-9.953,0Zm4.994,-34.228l-3.537,24.934l7.074,0l-3.537,-24.934Z" style="fill:#2f2f2f;fill-rule:nonzero;"/><path d="M118.372,417.849c-4.207,0 -7.779,-1.468 -10.715,-4.404c-2.936,-2.936 -4.405,-6.497 -4.405,-10.681l0,-34.644c0,-4.185 1.48,-7.751 4.439,-10.698c2.96,-2.948 6.52,-4.422 10.681,-4.422c4.208,0 7.774,1.48 10.699,4.439c2.924,2.959 4.387,6.519 4.387,10.681l0,7.213l-9.884,0l0,-7.387c0,-1.525 -0.537,-2.826 -1.612,-3.901c-1.075,-1.075 -2.376,-1.612 -3.902,-1.612c-1.502,0 -2.786,0.537 -3.849,1.612c-1.064,1.075 -1.595,2.376 -1.595,3.901l0,34.714c0,1.526 0.531,2.82 1.595,3.884c1.063,1.063 2.347,1.595 3.849,1.595c1.526,0 2.827,-0.532 3.902,-1.595c1.075,-1.064 1.612,-2.358 1.612,-3.884l0,-8.705l9.884,0l0,8.809c0,4.207 -1.48,7.774 -4.439,10.698c-2.96,2.925 -6.508,4.387 -10.647,4.387Z" style="fill:#2f2f2f;fill-rule:nonzero;"/><path d="M156.276,417.849c-4.184,0 -7.739,-1.462 -10.664,-4.387c-2.924,-2.924 -4.386,-6.467 -4.386,-10.629l0,-49.035l9.328,0l0,48.931c0,1.503 0.538,2.786 1.613,3.849c1.075,1.064 2.364,1.596 3.866,1.596c1.526,0 2.815,-0.532 3.867,-1.596c1.052,-1.063 1.578,-2.346 1.578,-3.849l0,-48.931l9.953,0l0,49.035c0,4.231 -1.48,7.791 -4.439,10.681c-2.959,2.89 -6.531,4.335 -10.716,4.335Z" style="fill:#2f2f2f;fill-rule:nonzero;"/><path d="M207.115,353.798l0,9.536l-17.547,44.25l17.547,0l0,9.467l-27.812,0l0,-9.467l17.582,-44.25l-17.582,0l0,-9.536l27.812,0Z" style="fill:#2f2f2f;fill-rule:nonzero;"/><path d="M241.516,353.798l0,9.536l-17.547,44.25l17.547,0l0,9.467l-27.812,0l0,-9.467l17.582,-44.25l-17.582,0l0,-9.536l27.812,0Z" style="fill:#2f2f2f;fill-rule:nonzero;"/><rect x="249.457" y="353.798" width="9.502" height="63.254" style="fill:#2f2f2f;fill-rule:nonzero;"/></g><path d="M63.59,462l0,-22.997l9.859,0l0,3.467l-6.405,0l0,6.292l4.678,0l0,3.479l-4.678,0l0,6.292l6.405,0l0,3.467l-9.859,0Z" style="fill:#2f2f2f;fill-rule:nonzero;"/><path d="M79.74,439.003l4.59,15.445l0,-15.445l3.467,0l0,22.997l-3.719,0l-4.779,-14.726l0,14.726l-3.454,0l0,-22.997l3.895,0Z" style="fill:#2f2f2f;fill-rule:nonzero;"/><path d="M94.265,442.47l-3.682,0l0,-3.467l10.818,0l0,3.467l-3.669,0l0,19.53l-3.467,0l0,-19.53Z" style="fill:#2f2f2f;fill-rule:nonzero;"/><path d="M104.187,462l0,-22.997l9.86,0l0,3.467l-6.405,0l0,6.292l4.677,0l0,3.479l-4.677,0l0,6.292l6.405,0l0,3.467l-9.86,0Z" style="fill:#2f2f2f;fill-rule:nonzero;"/><path d="M121.901,439.003c1.933,0 3.35,0.534 4.249,1.601c0.799,0.933 1.198,2.228 1.198,3.884l0,3.341c0,1.63 -0.618,3.005 -1.854,4.123l2.572,10.048l-3.744,0l-2.118,-8.687c-0.101,0.009 -0.206,0.013 -0.315,0.013l-1.992,0l0,8.674l-3.455,0l0,-22.997l5.459,0Zm2.068,5.548c0,-1.337 -0.66,-2.005 -1.98,-2.005l-2.092,0l0,7.35l2.092,0c0.555,0 1.024,-0.195 1.406,-0.586c0.383,-0.391 0.574,-0.859 0.574,-1.406l0,-3.353Z" style="fill:#2f2f2f;fill-rule:nonzero;"/><path d="M133.576,442.47l-3.681,0l0,-3.467l10.817,0l0,3.467l-3.669,0l0,19.53l-3.467,0l0,-19.53Z" style="fill:#2f2f2f;fill-rule:nonzero;"/><path d="M144.797,456.717l-0.845,5.283l-3.605,0l3.895,-22.997l4.779,0l3.845,22.997l-3.631,0l-0.819,-5.283l-3.619,0Zm1.816,-12.444l-1.286,9.065l2.572,0l-1.286,-9.065Z" style="fill:#2f2f2f;fill-rule:nonzero;"/><rect x="155.791" y="439.003" width="3.455" height="22.997" style="fill:#2f2f2f;fill-rule:nonzero;"/><path d="M166.256,439.003l4.589,15.445l0,-15.445l3.467,0l0,22.997l-3.719,0l-4.778,-14.726l0,14.726l-3.455,0l0,-22.997l3.896,0Z" style="fill:#2f2f2f;fill-rule:nonzero;"/><path d="M180.868,462l-3.454,0l0,-22.997l4.967,0l3.228,16.491l3.101,-16.491l4.779,0l0,22.997l-3.467,0l0,-14.449l-3.001,14.449l-2.786,0l-3.367,-14.411l0,14.411Z" style="fill:#2f2f2f;fill-rule:nonzero;"/><path d="M196.603,462l0,-22.997l9.859,0l0,3.467l-6.404,0l0,6.292l4.677,0l0,3.479l-4.677,0l0,6.292l6.404,0l0,3.467l-9.859,0Z" style="fill:#2f2f2f;fill-rule:nonzero;"/><path d="M212.754,439.003l4.589,15.445l0,-15.445l3.467,0l0,22.997l-3.719,0l-4.779,-14.726l0,14.726l-3.454,0l0,-22.997l3.896,0Z" style="fill:#2f2f2f;fill-rule:nonzero;"/><path d="M227.278,442.47l-3.682,0l0,-3.467l10.818,0l0,3.467l-3.669,0l0,19.53l-3.467,0l0,-19.53Z" style="fill:#2f2f2f;fill-rule:nonzero;"/><g id="White-bubbles" serif:id="White bubbles"><path d="M101.117,97.993c6.339,-0.122 11.585,4.926 11.707,11.265c0.122,6.339 -4.925,11.585 -11.264,11.707c-6.339,0.122 -11.585,-4.925 -11.708,-11.264c-0.122,-6.339 4.926,-11.585 11.265,-11.708Z" style="fill:#fff;"/><path d="M166.381,86.048c10.359,-0.798 19.416,6.964 20.213,17.323c0.798,10.358 -6.965,19.415 -17.323,20.212c-10.358,0.798 -19.415,-6.964 -20.213,-17.323c-0.797,-10.358 6.965,-19.415 17.323,-20.212Z" style="fill:#fff;"/><circle cx="121.434" cy="77.383" r="8.608" style="fill:#fff;"/><circle cx="149.748" cy="36.991" r="4" style="fill:#fff;"/><path d="M76.219,62.051c2.819,-0.43 5.456,1.497 5.883,4.3c0.428,2.803 -1.514,5.428 -4.334,5.858c-2.819,0.43 -5.455,-1.496 -5.883,-4.299c-0.427,-2.804 1.514,-5.429 4.334,-5.859Z" style="fill:#fff;"/></g><g id="Black-bubbles" serif:id="Black bubbles"><circle cx="124.002" cy="23" r="4"/><circle cx="43.002" cy="31.009" r="4"/><circle cx="85.002" cy="29" r="2"/><circle cx="61.002" cy="19" r="2"/><circle cx="257.002" cy="34.5" r="2"/><circle cx="172.002" cy="17" r="2"/><circle cx="146.002" cy="2" r="2"/><circle cx="212.002" cy="15" r="2"/><circle cx="203.502" cy="31.509" r="3.5"/></g><circle cx="173.42" cy="94.594" r="3.594" style="fill:#2f2f2f;"/></g></svg>